<svg id="Layer_1" data-name="Layer 1" xmlns="http://www.w3.org/2000/svg" viewBox="0 0 800 97.3"><defs><style>.cls-1{fill:#005c9c;}</style></defs><title>logo_hm_academy</title><path class="cls-1" d="M32.9,34.8c0-1,.3-2.2,1.1-2.2s1.1,1.2,1.1,2.2-.9,2.4-2.1,4l-.1-4ZM58,44.9a2.12,2.12,0,0,0-3.6,0l-3.3,5.2-3.3-5.2a2.12,2.12,0,0,0-3.6,0l-3.3,5.2-3.3-5.2a2.12,2.12,0,0,0-3.6,0l-1.1,1.8V44.9c3.7-3.6,6.4-7.1,6.4-10.2,0-4.8-2.9-6.5-5.4-6.5s-5.4,2-5.4,6.5V43c-2.7,2.4-5.5,4.6-7,5.8-.5.4-.9.7-1.3,1a2.13,2.13,0,0,0,2.7,3.3c.4-.3.8-.6,1.3-1,1.4-1.1,2.9-2.3,4.3-3.5V54A2.26,2.26,0,0,0,30,56.1c.2,0,.4.1.6.1a2,2,0,0,0,1.8-1L35.7,50,39,55.2a2.12,2.12,0,0,0,3.6,0L45.9,50l3.3,5.2a2.12,2.12,0,0,0,3.6,0L56.1,50l1.7,2.7a2.23,2.23,0,0,0,1.8,1h8.9a2.1,2.1,0,0,0,0-4.2H60.8L58,44.9ZM44.7,80.7A30.9,30.9,0,1,1,75.6,49.8,30.92,30.92,0,0,1,44.7,80.7Zm0-66.1A35.2,35.2,0,1,0,79.9,49.8,35.25,35.25,0,0,0,44.7,14.6ZM56.6,65a16.18,16.18,0,0,1-22.7,0,2.19,2.19,0,0,0-3.1,3.1A20.19,20.19,0,0,0,45.2,74a20.62,20.62,0,0,0,14.4-5.9,2.12,2.12,0,0,0,0-3.1,2,2,0,0,0-3,0Z"/><path class="cls-1" d="M339.6,49.6H325.1v-16h14.5a8,8,0,0,1,0,16Zm18-8a18.05,18.05,0,0,0-18-18H321.1a.9.9,0,0,0-.5.1c-.2,0-.3-.1-.5-.1a5,5,0,0,0-5,5V71.1a5,5,0,1,0,10,0V59.6h12l11.1,14.5a5.07,5.07,0,0,0,4,2,4.72,4.72,0,0,0,3-1,5,5,0,0,0,.9-7L348,57.5a17.89,17.89,0,0,0,9.6-15.9Z"/><path class="cls-1" d="M386.3,45.2c-8.9-2.1-10.8-3.3-10.8-6.7a3.58,3.58,0,0,1,2.2-3.5c3.4-2,10.6-2.1,17.2,1.6a5,5,0,0,0,4.9-8.7c-9.1-5.1-20-5.8-27.1-1.6a13.67,13.67,0,0,0-7.1,12.2c0,12.1,11.2,14.7,18.6,16.4,8.8,2.1,10.7,3.2,10.7,6.5,0,1-.2,2.1-2.1,3.1-4.7,2.6-14.5,1.9-20.2-1.5a5,5,0,1,0-5.2,8.6A35.19,35.19,0,0,0,385,76.1c4.8,0,9.3-.9,12.7-2.9a13.17,13.17,0,0,0,7.1-11.8c-.1-11.9-11.2-14.4-18.5-16.2Z"/><path class="cls-1" d="M260.4,25a5,5,0,0,0-7.1.2L230.8,49.3V28.6a5,5,0,1,0-10,0V71.1a5,5,0,1,0,10,0V63.9l10.5-11.2,11.3,20.8a4.89,4.89,0,0,0,4.4,2.6,5.33,5.33,0,0,0,2.4-.6,5.06,5.06,0,0,0,2-6.8L248.5,45.1l12.1-13a5,5,0,0,0-.2-7.1Z"/><path class="cls-1" d="M162.7,27.7c0-.2-.1-.3-.1-.5s-.1-.3-.1-.5-.1-.3-.2-.4-.1-.3-.2-.4-.2-.3-.3-.4-.2-.3-.3-.4l-.4-.4-.2-.2-.1-.1a2.19,2.19,0,0,0-.5-.3.76.76,0,0,0-.4-.2c-.2-.1-.3-.1-.5-.2a.9.9,0,0,0-.5-.1c-.2,0-.3-.1-.5-.1a.9.9,0,0,1-.5-.1h-.5a.9.9,0,0,0-.5.1c-.2,0-.3.1-.5.1s-.3.1-.5.1-.3.1-.5.2-.3.1-.4.2-.3.2-.4.3a1.38,1.38,0,0,1-.4.3c-.1.1-.2.3-.4.4l-.2.2L134,50.6,114.5,25.4l-.2-.2c-.1-.1-.2-.3-.4-.4a1.38,1.38,0,0,0-.4-.3c-.1-.1-.3-.2-.4-.3a.76.76,0,0,0-.4-.2.76.76,0,0,1-.4-.2.9.9,0,0,0-.5-.1c-.2,0-.3-.1-.5-.1a.75.75,0,0,1-.5-.1h-.4a.75.75,0,0,0-.5.1.6.6,0,0,0-.4.1c-.2,0-.3.1-.5.1s-.3.1-.5.2-.3.1-.4.2-.3.2-.5.3a.1.1,0,0,0-.1.1l-.2.2c-.1.1-.3.2-.4.4a1.38,1.38,0,0,0-.3.4c-.1.1-.2.3-.3.4a.76.76,0,0,0-.2.4c-.1.1-.1.3-.2.4a.9.9,0,0,0-.1.5c0,.2-.1.3-.1.5a.75.75,0,0,1-.1.5V71.1a5,5,0,0,0,10,0V43.3l14.5,18.8.1.1.1.1.6.6h.1c.2.1.4.3.6.4l.1.1a4.87,4.87,0,0,0,.7.3h.1a1.27,1.27,0,0,0,.6.1h.2c.2,0,.5.1.7.1h0a1.7,1.7,0,0,0,.7-.1h.2c.2,0,.4-.1.6-.1h.1a4.87,4.87,0,0,1,.7-.3c.1,0,.1-.1.2-.1a2.09,2.09,0,0,0,.6-.4h.1l.6-.6.1-.1.1-.1,14.6-18.8V71.2a5,5,0,0,0,10,0V28.4a2.64,2.64,0,0,0,.1-.7Z"/><path class="cls-1" d="M185.6,55.1l5.5-13.3,5.5,13.3Zm10.1-28.3a5,5,0,0,0-4.6-3.1,4.89,4.89,0,0,0-4.6,3.1L169.2,69a4.93,4.93,0,0,0,2.7,6.5,4.33,4.33,0,0,0,1.9.4,5,5,0,0,0,4.6-3.1l3.1-7.6h18.6a1.27,1.27,0,0,0,.6-.1l3.2,7.7a5,5,0,1,0,9.2-3.8L195.7,26.8Z"/><path class="cls-1" d="M302.1,33.6a5,5,0,0,0,0-10H276a5,5,0,0,0-5,5V71.1a5,5,0,0,0,5,5h26.1a5,5,0,0,0,0-10H281V54h13.8a5,5,0,0,0,0-10H281V33.7l21.1-.1Z"/><path class="cls-1" d="M520.8,31.5a5,5,0,0,1,1.1,3,5.15,5.15,0,0,1-5.3,5,5.54,5.54,0,0,1-4.1-1.8,15.16,15.16,0,0,0-10.7-5c-9.4,0-16.3,7.3-16.3,17.1s6.9,17.1,16.3,17.1A14.5,14.5,0,0,0,512.5,62a5.76,5.76,0,0,1,4.2-1.8,5,5,0,0,1,5.1,4.8,4.14,4.14,0,0,1-1.1,3c-3.9,4.8-9.9,8.7-18.9,8.7-15.6,0-27.7-10.9-27.7-26.9s12.1-26.9,27.7-26.9C510.9,22.9,516.9,26.7,520.8,31.5Z"/><path class="cls-1" d="M601.5,75.9H587.2a6.23,6.23,0,0,1-6.2-6.2V30.1a6.23,6.23,0,0,1,6.2-6.2h14.3c16.3,0,27.6,10.4,27.6,26.1S617.8,75.9,601.5,75.9Zm0-42.3h-9.4V66.1h9.4c10.3,0,16.3-7.4,16.3-16.2C617.8,40.7,612.2,33.6,601.5,33.6Z"/><path class="cls-1" d="M788.1,31.2,773,54.5V70.8a5.55,5.55,0,0,1-11.1,0V54.5L746.7,31.1a5,5,0,0,1-.8-2.7,5.3,5.3,0,0,1,5.3-5.1,5.4,5.4,0,0,1,4.5,2.5l11.8,18.9L779,26a5.41,5.41,0,0,1,4.6-2.6,5.17,5.17,0,0,1,5.3,5.1A4.69,4.69,0,0,1,788.1,31.2Z"/><path class="cls-1" d="M443.9,55.1l5.5-13.3,5.5,13.3ZM454,26.8a5,5,0,0,0-4.6-3.1,4.89,4.89,0,0,0-4.6,3.1L427.5,69a4.93,4.93,0,0,0,2.7,6.5,4.33,4.33,0,0,0,1.9.4,5,5,0,0,0,4.6-3.1l3.1-7.6h18.6a1.27,1.27,0,0,0,.6-.1l3.2,7.7a5,5,0,0,0,9.2-3.8L454,26.8Z"/><path class="cls-1" d="M544.7,55.1l5.5-13.3,5.5,13.3Zm10.1-28.3a5,5,0,0,0-4.6-3.1,4.89,4.89,0,0,0-4.6,3.1L528.3,69a4.93,4.93,0,0,0,2.7,6.5,4.33,4.33,0,0,0,1.9.4,5,5,0,0,0,4.6-3.1l3.1-7.6h18.6a1.27,1.27,0,0,0,.6-.1l3.2,7.7a5,5,0,0,0,9.2-3.8L554.8,26.8Z"/><path class="cls-1" d="M668.6,33.6a5,5,0,0,0,0-10H642.5a5,5,0,0,0-5,5V71.1a5,5,0,0,0,5,5h26.1a5,5,0,0,0,0-10H647.5V54h13.8a5,5,0,0,0,0-10H647.5V33.7l21.1-.1Z"/><path class="cls-1" d="M738.9,27.7c0-.2-.1-.3-.1-.5s-.1-.3-.1-.5-.1-.3-.2-.4-.1-.3-.2-.4-.2-.3-.3-.4-.2-.3-.3-.4l-.4-.4-.2-.2-.1-.1a2.19,2.19,0,0,0-.5-.3.76.76,0,0,0-.4-.2c-.2-.1-.3-.1-.5-.2a.9.9,0,0,0-.5-.1c-.2,0-.3-.1-.5-.1a.9.9,0,0,1-.5-.1h-.5a.9.9,0,0,0-.5.1c-.2,0-.3.1-.5.1s-.3.1-.5.1-.3.1-.5.2-.3.1-.4.2-.3.2-.4.3a1.38,1.38,0,0,1-.4.3c-.1.1-.2.3-.4.4l-.2.2L710.2,50.6,690.7,25.4l-.2-.2c-.1-.1-.2-.3-.4-.4a1.38,1.38,0,0,0-.4-.3c-.1-.1-.3-.2-.4-.3a.76.76,0,0,0-.4-.2.76.76,0,0,1-.4-.2.9.9,0,0,0-.5-.1c-.2,0-.3-.1-.5-.1a.75.75,0,0,1-.5-.1h-.4a.75.75,0,0,0-.5.1.6.6,0,0,0-.4.1c-.2,0-.3.1-.5.1s-.3.1-.5.2-.3.1-.4.2-.3.2-.5.3a.1.1,0,0,0-.1.1l-.2.2c-.1.1-.3.2-.4.4a1.38,1.38,0,0,0-.3.4c-.1.1-.2.3-.3.4a.76.76,0,0,0-.2.4c-.1.1-.1.3-.2.4a.9.9,0,0,0-.1.5c0,.2-.1.3-.1.5a.75.75,0,0,1-.1.5V71.1a5,5,0,1,0,10,0V43.3l14.5,18.8.1.1.1.1.6.6h.1c.2.1.4.3.6.4l.1.1a4.88,4.88,0,0,0,.7.3h.1a1.27,1.27,0,0,0,.6.1h.2c.2,0,.5.1.7.1h0a1.7,1.7,0,0,0,.7-.1h.2c.2,0,.4-.1.6-.1h.1a4.88,4.88,0,0,1,.7-.3c.1,0,.1-.1.2-.1a2.09,2.09,0,0,0,.6-.4h.1l.6-.6.1-.1.1-.1,14.6-18.8V71.2a5,5,0,0,0,10,0V28.4a2.63,2.63,0,0,0,.1-.7Z"/></svg>